<?xml version="1.0" standalone="no"?>
<!DOCTYPE svg PUBLIC "-//W3C//DTD SVG 20010904//EN"
 "http://www.w3.org/TR/2001/REC-SVG-20010904/DTD/svg10.dtd">
<svg version="1.0" xmlns="http://www.w3.org/2000/svg"
 width="251.000000pt" height="251.000000pt" viewBox="0 0 251.000000 251.000000"
 preserveAspectRatio="xMidYMid meet">
<metadata>
Created by potrace 1.11, written by Peter Selinger 2001-2013
</metadata>
<g transform="translate(0.000000,251.000000) scale(0.100000,-0.100000)"
fill="#000000" stroke="none">
<path d="M1025 2450 c-131 -27 -319 -96 -336 -122 -3 -5 -9 -8 -12 -6 -4 1
-44 -22 -89 -52 -96 -63 -243 -206 -311 -302 -161 -228 -246 -556 -212 -814 3
-27 8 -65 11 -84 5 -38 31 -143 44 -175 4 -11 20 -53 36 -94 16 -41 33 -79 39
-85 5 -6 20 -32 33 -56 12 -25 33 -58 47 -74 14 -16 25 -33 25 -38 0 -4 46
-54 102 -111 154 -153 283 -233 478 -297 63 -21 140 -41 170 -45 30 -4 64 -9
75 -12 38 -8 230 -4 305 7 300 43 574 200 763 438 65 82 104 144 151 240 19
40 35 74 34 75 0 1 12 41 26 88 14 47 28 103 31 125 3 21 9 66 13 99 17 130 1
309 -39 450 -25 89 -26 91 -84 209 -162 332 -479 569 -854 640 -104 20 -344
18 -446 -4z"/>
</g>
</svg>
